# xmcd
#
# Track frame offsets:
#	187
#	12925
#	27610
#	40540
#	54540
#	66485
#	76370
#	102652
#	113107
#	124085
#	136702
#	149412
#	163447
#	175805
#	188340
#	201120
#	213717
#	227750
#	239757
#	253310
#	263860
#	276560
#	289505
#	300630
#	310547
#	328790
#	340305
#
# Disc length: 4718
#
# Revision: 1
# Processed by: cddbd v1.5.1PL0 Copyright (c) Steve Scherf et al.
# Submitted via: ExactAudioCopy v0.95a5
# Normalized: r0:DSETVAR1
#
DISCID=a1126c1b
DTITLE=Various Artist - My Chess Box - compiled by peter barakan
DYEAR=1997
DGENRE=Blues
TTITLE0=Tommy Tucker - Hi Heel Sneakers
TTITLE1=Billy Stewart - Sitting In The Park
TTITLE2=Fontella Bass - Rescue Me
TTITLE3=Howlin' Wolf - Smokestack Lightning
TTITLE4=Little Walter - My Babe
TTITLE5=Chuck Berry - Memphis
TTITLE6=The Ramsey Luwis Torio - The "In" Crowd
TTITLE7=Clarence "Frogman" Henry - Ain't Got No Home
TTITLE8=Sugar Boy Crawford - Jock-A-Mo
TTITLE9=Clifton Chenier - The Big Wheel
TTITLE10=Bobby Charles - See You Later Alligator
TTITLE11=Willie Mabon - I Don't Know
TTITLE12=Jimmy McCracklin - The Walk
TTITLE13=Jimmy Rogers - Walking By Myself
TTITLE14=Muddy Waters - I'm Youre Hoochi Coochie Man
TTITLE15=Jackie Brenston - Rocket 88
TTITLE16=Sonny Boy Williamson - Help Me
TTITLE17=John Brim - Be Careful
TTITLE18=Koko Taylor - Wang Dang Doodle
TTITLE19=Etta James - Tell Mama
TTITLE20=Howlin' Wolf - Love Me Darling
TTITLE21=Buddy Guy - Let Me Love You Babe
TTITLE22=Bo Diddley - Who Do You Love
TTITLE23=Dale Hawkins - Suzie Q
TTITLE24=Little Milton - Feel So Bad
TTITLE25=Etta James - I'd Rather Go Blind
TTITLE26=Fontella Bass And Bobby McClure - Don't Mess Up A Good Thing
EXTD=
EXTT0=
EXTT1=
EXTT2=
EXTT3=
EXTT4=
EXTT5=
EXTT6=
EXTT7=
EXTT8=
EXTT9=
EXTT10=
EXTT11=
EXTT12=
EXTT13=
EXTT14=
EXTT15=
EXTT16=
EXTT17=
EXTT18=
EXTT19=
EXTT20=
EXTT21=
EXTT22=
EXTT23=
EXTT24=
EXTT25=
EXTT26=
PLAYORDER=
